# xmcd CD database file
#
# Track frame offsets:
#	150
#	27034
#	44191
#	68759
#	99445
#	131186
#	155884
#	180028
#	188950
#	215722
#
# Disc length: 2972 seconds
#
# Revision: 0
# Processed by: cddbd v1.4PL0 Copyright (c) Steve Scherf et al.
# Submitted via: CDex 1.50Beta7
#
DISCID=900b9a0a
DTITLE=Ori Kaplan Percussion Ensemble - Gongol
DYEAR=2001
DGENRE=Jazz
TTITLE0=Crisis Dream
TTITLE1=Anticipate
TTITLE2=Slow Boat
TTITLE3=Blow Daddy
TTITLE4=Sky Drops
TTITLE5=Dark Sun
TTITLE6=Prayer for Ramón
TTITLE7=Gongol
TTITLE8=Shadow
TTITLE9=Balisax
EXTD=YEAR: 2001
EXTT0=
EXTT1=
EXTT2=
EXTT3=
EXTT4=
EXTT5=
EXTT6=
EXTT7=
EXTT8=
EXTT9=
PLAYORDER=
